<?xml version="1.0" encoding="utf-8"?>
<svg version="1.1" xmlns="http://www.w3.org/2000/svg" xmlns:xlink="http://www.w3.org/1999/xlink" viewBox="0 0 200 200" width="25px" height="17px">
  <style type="text/css">
    .st0 {
      fill: #8bd5ec;
    }
    .st1 {
      fill: #00ab70;
    }
  </style>
  <g id="Layer_1">
    <circle class="st0" cx="97.2" cy="99.8" r="87.1" />
  </g>
  <g id="Layer_2">
    <g>
      <path
        class="st1"
        d="M12.7,78.7c0.4,1.1,0.8,2.3,1.2,3.6c2.4,7.3,16.6,14.9,18.9,16.4s-1.9,4.4-3.8,6.4s-1.7,5.3,1.7,15.5
			c3.3,10.1,13.1,8.3,17.3,10.1c4.1,1.8,0.9,29.2,1,31.2c0.1,1.4,3.4,9,5.5,13.7c3.6,2,7.3,3.8,11.1,5.3c-0.1-3.9,0-15.5,4.4-18.7
			c5.3-3.8,8.2-7,8.2-12.2s4.5-9,9.8-13.1s4.4-11,4.9-13.7s0.9-4.7-0.5-5.3s-11.5,1.6-11.7-0.5s-7.2-15.2-9.1-15.6
			c-1.9-0.5-21.2,2.4-21.6,1s-4.3-10.2-6.3-11.1c-2-0.8-7.3,7.9-8.4,7s-0.9-5.4-1.3-9.6s-2.4-4.7-4.8-7.2
			c-2.5-2.5-0.6-10.5-0.6-10.5s16.4-2.3,28-7C68,60,71.8,48.7,73.8,45.5c1.9-3.2,4.9-3.2,7.3-4c2.3-0.8,4.2-3.8,4.2-3.8
			s3.4-6.2-8.1-8.4c-11.5-2.2-10.9-3-10.9-3l-6.9-5C36.4,32.4,19,53.4,12.7,78.7z"
      />
      <path
        class="st1"
        d="M135.7,21.7c-0.8,0.8-3.6,3.7-4.5,4.7c-1.1,1.2-9.3,4.7-11,4.7c-1.7,0-10.5-0.9-12,2.3s-6.4,9.8-3.6,10.7
			c2.7,0.9,6,3.1,10.1,2.1c4.2-1,6.9-2.9,13.2-1.6c6.3,1.4,18,5.9,23.7,4.2c4.5-1.4,9.9-4.2,11.9-5.3
			C155.9,34.4,146.4,27,135.7,21.7z"
      />
      <path
        class="st1"
        d="M174.8,60.3c-3.7,1.8-19.5,9.4-23.6,8.9c-4.7-0.6-18.6-3.2-20-6.9s-6.1-6.2-7.7-6.2c-1.7,0-17.7-2.1-19.7,4.8
			s-5.2,18,1.3,23.2c6.5,5.2,15.8,8.4,22.9,7.8c7.1-0.6,10.6-1.7,14.2,0.1c3.7,1.8,8.3,9.7,7.6,15.2c-0.7,5.5-0.4,10.2,2,14.8
			c2.3,4.6,7.7,10.6,7.7,18.5c0,7.8,0.9,12.7,3.9,14.6c0.2,0.1,0.6,0.3,0.9,0.3c12.5-15.1,20-34.4,20-55.6
			C184.3,85.5,180.9,72.1,174.8,60.3z"
      />
    </g>
  </g>
</svg>
